[Header]
FileType HTR
DataType HTRS
FileVersion 1
NumSegments 64
NumFrames 4
DataFrameRate 30
EulerRotationOrder ZYX
CalibrationUnits mm
RotationUnits Degrees
GlobalAxisofGravity Y
BoneLengthAxis Y
ScaleFactor 1.0
[SegmentNames&Hierarchy]
Hips	GLOBAL
Spine	Hips
Spine1	Spine
Spine2	Spine1
Neck	Spine2
Head	Neck
LeftEye	Head
RightEye	Head
LeftShoulder	Spine2
LeftArm	LeftShoulder
LeftForeArm	LeftArm
LeftHand	LeftForeArm
LeftHandThumb1	LeftHand
LeftHandThumb2	LeftHandThumb1
LeftHandThumb3	LeftHandThumb2
LeftHandThumb4	LeftHandThumb3
LeftHandIndex1	LeftHand
LeftHandIndex2	LeftHandIndex1
LeftHandIndex3	LeftHandIndex2
LeftHandIndex4	LeftHandIndex3
LeftHandMiddle1	LeftHand
LeftHandMiddle2	LeftHandMiddle1
LeftHandMiddle3	LeftHandMiddle2
LeftHandMiddle4	LeftHandMiddle3
LeftHandRing1	LeftHand
LeftHandRing2	LeftHandRing1
LeftHandRing3	LeftHandRing2
LeftHandRing4	LeftHandRing3
LeftHandPinky1	LeftHand
LeftHandPinky2	LeftHandPinky1
LeftHandPinky3	LeftHandPinky2
LeftHandPinky4	LeftHandPinky3
RightShoulder	Spine2
RightArm	RightShoulder
RightForeArm	RightArm
RightHand	RightForeArm
RightHandPinky1	RightHand
RightHandPinky2	RightHandPinky1
RightHandPinky3	RightHandPinky2
RightHandPinky4	RightHandPinky3
RightHandRing1	RightHand
RightHandRing2	RightHandRing1
RightHandRing3	RightHandRing2
RightHandRing4	RightHandRing3
RightHandMiddle1	RightHand
RightHandMiddle2	RightHandMiddle1
RightHandMiddle3	RightHandMiddle2
RightHandMiddle4	RightHandMiddle3
RightHandIndex1	RightHand
RightHandIndex2	RightHandIndex1
RightHandIndex3	RightHandIndex2
RightHandIndex4	RightHandIndex3
RightHandThumb1	RightHand
RightHandThumb2	RightHandThumb1
RightHandThumb3	RightHandThumb2
RightHandThumb4	RightHandThumb3
LeftUpLeg	Hips
LeftLeg	LeftUpLeg
LeftFoot	LeftLeg
LeftToeBase	LeftFoot
RightUpLeg	Hips
RightLeg	RightUpLeg
RightFoot	RightLeg
RightToeBase	RightFoot
[BasePosition]
Hips	0	0	0	0	0	0	1
Spine	0	0	0	0	0	0	1
Spine1	0	0	0	0	0	0	1
Spine2	0	0	0	0	0	0	1
Neck	0	0	0	0	0	0	1
Head	0	0	0	0	0	0	1
LeftEye	0	0	0	0	0	0	1
RightEye	0	0	0	0	0	0	1
LeftShoulder	0	0	0	0	0	0	1
LeftArm	0	0	0	0	0	0	1
LeftForeArm	0	0	0	0	0	0	1
LeftHand	0	0	0	0	0	0	1
LeftHandThumb1	0	0	0	0	0	0	1
LeftHandThumb2	0	0	0	0	0	0	1
LeftHandThumb3	0	0	0	0	0	0	1
LeftHandThumb4	0	0	0	0	0	0	1
LeftHandIndex1	0	0	0	0	0	0	1
LeftHandIndex2	0	0	0	0	0	0	1
LeftHandIndex3	0	0	0	0	0	0	1
LeftHandIndex4	0	0	0	0	0	0	1
LeftHandMiddle1	0	0	0	0	0	0	1
LeftHandMiddle2	0	0	0	0	0	0	1
LeftHandMiddle3	0	0	0	0	0	0	1
LeftHandMiddle4	0	0	0	0	0	0	1
LeftHandRing1	0	0	0	0	0	0	1
LeftHandRing2	0	0	0	0	0	0	1
LeftHandRing3	0	0	0	0	0	0	1
LeftHandRing4	0	0	0	0	0	0	1
LeftHandPinky1	0	0	0	0	0	0	1
LeftHandPinky2	0	0	0	0	0	0	1
LeftHandPinky3	0	0	0	0	0	0	1
LeftHandPinky4	0	0	0	0	0	0	1
RightShoulder	0	0	0	0	0	0	1
RightArm	0	0	0	0	0	0	1
RightForeArm	0	0	0	0	0	0	1
RightHand	0	0	0	0	0	0	1
RightHandPinky1	0	0	0	0	0	0	1
RightHandPinky2	0	0	0	0	0	0	1
RightHandPinky3	0	0	0	0	0	0	1
RightHandPinky4	0	0	0	0	0	0	1
RightHandRing1	0	0	0	0	0	0	1
RightHandRing2	0	0	0	0	0	0	1
RightHandRing3	0	0	0	0	0	0	1
RightHandRing4	0	0	0	0	0	0	1
RightHandMiddle1	0	0	0	0	0	0	1
RightHandMiddle2	0	0	0	0	0	0	1
RightHandMiddle3	0	0	0	0	0	0	1
RightHandMiddle4	0	0	0	0	0	0	1
RightHandIndex1	0	0	0	0	0	0	1
RightHandIndex2	0	0	0	0	0	0	1
RightHandIndex3	0	0	0	0	0	0	1
RightHandIndex4	0	0	0	0	0	0	1
RightHandThumb1	0	0	0	0	0	0	1
RightHandThumb2	0	0	0	0	0	0	1
RightHandThumb3	0	0	0	0	0	0	1
RightHandThumb4	0	0	0	0	0	0	1
LeftUpLeg	0	0	0	0	0	0	1
LeftLeg	0	0	0	0	0	0	1
LeftFoot	0	0	0	0	0	0	1
LeftToeBase	0	0	0	0	0	0	1
RightUpLeg	0	0	0	0	0	0	1
RightLeg	0	0	0	0	0	0	1
RightFoot	0	0	0	0	0	0	1
RightToeBase	0	0	0	0	0	0	1
[Hips]
122	-75.9504776	936.9829712	1191.19751	-368.8234253	110.7191238	10.887743	1.0
123	-73.84041595	929.4781494	1202.909058	-369.3838806	122.0952606	7.448138237	1.0
124	-76.18973541	921.8798218	1213.73877	-368.5233154	130.8289185	4.924648285	1.0
125	-81.44007874	911.2383423	1221.829956	-366.5154419	137.7484436	3.483708858	1.0
[Spine]
122	0	101.8159943	1.315000057	-0.56327492	1.789506912	0.4247966707	1.0
123	0	101.8159943	1.315000057	-0.9438481331	4.058845997	-0.1940509677	1.0
124	0	101.8159943	1.315000057	-0.9853994846	6.179900169	-0.8899476528	1.0
125	0	101.8159943	1.315000057	-0.5795324445	7.747858047	-1.528740168	1.0
[Spine1]
122	0	100.8349991	-10.00800037	-1.12557447	4.300640106	-0.0735507831	1.0
123	0	100.8349991	-10.00800037	-1.955440521	8.957267761	-1.343799353	1.0
124	0	100.8349991	-10.00800037	-2.163621187	13.27370262	-2.729521513	1.0
125	0	100.8349991	-10.00800037	-1.49444437	16.48591614	-3.985972404	1.0
[Spine2]
122	0	91	-13.73399925	-1.125574827	4.300623894	-0.0735616833	1.0
123	0	91	-13.73399925	-1.955440044	8.957266808	-1.34380424	1.0
124	0	91	-13.73399925	-2.163622379	13.27371407	-2.729522228	1.0
125	0	91	-13.73399925	-1.494445562	16.48591995	-3.985976219	1.0
[Neck]
122	0	166.7169952	-25.16200066	4.657709122	-9.255298615	4.934535503	1.0
123	0	166.7169952	-25.16200066	1.664158463	-6.985761642	4.038590431	1.0
124	0	166.7169952	-25.16200066	-0.4322087467	-4.019947052	1.671721458	1.0
125	0	166.7169952	-25.16200066	-2.261036634	-2.063195467	-1.770912528	1.0
[Head]
122	0	96.17900085	16.84999847	-19.01151657	-38.07005692	18.44118309	1.0
123	0	96.17900085	16.84999847	-18.02453423	-23.6586647	1.361630678	1.0
124	0	96.17900085	16.84999847	-21.83550262	-8.757397652	-6.497307301	1.0
125	0	96.17900085	16.84999847	-28.59930801	-1.052946687	-4.014957905	1.0
[LeftEye]
122	30.6760006	64.09500122	92.83599854	0	0	0	1.0
123	30.6760006	64.09500122	92.83599854	0	0	0	1.0
124	30.6760006	64.09500122	92.83599854	0	0	0	1.0
125	30.6760006	64.09500122	92.83599854	0	0	0	1.0
[RightEye]
122	-30.6760006	64.09500122	92.83499908	0	0	0	1.0
123	-30.6760006	64.09500122	92.83499908	0	0	0	1.0
124	-30.6760006	64.09500122	92.83499908	0	0	0	1.0
125	-30.6760006	64.09500122	92.83499908	0	0	0	1.0
[LeftShoulder]
122	45.70400238	109.4599991	-26.28000069	-0.08189921826	-1.236432433	2.225298405	1.0
123	45.70400238	109.4599991	-26.28000069	-0.02419448458	2.060876846	2.158470392	1.0
124	45.70400238	109.4599991	-26.28000069	0.09850228578	6.755394459	2.895633221	1.0
125	45.70400238	109.4599991	-26.28000069	0.3179609179	12.73011971	3.744630337	1.0
[LeftArm]
122	105.923996	-5.24600029	-22.32099915	-2.332459927	-8.508267403	-53.47588348	1.0
123	105.923996	-5.24600029	-22.32099915	10.42535591	-13.08002472	-61.09999847	1.0
124	105.923996	-5.24600029	-22.32099915	21.96897697	-12.79793453	-68.12653351	1.0
125	105.923996	-5.24600029	-22.32099915	29.65892792	-9.271532059	-72.17588043	1.0
[LeftForeArm]
122	278.414978	-0.0009999999311	0	-540.5256958	-39.54607773	539.5756226	1.0
123	278.414978	-0.0009999999311	0	-540.359314	-39.99703598	539.3372192	1.0
124	278.414978	-0.0009999999311	0	-540.6395874	-39.54462433	539.2886963	1.0
125	278.414978	-0.0009999999311	0	-541.2648926	-38.62999344	539.4713135	1.0
[LeftHand]
122	283.2879944	0	0	-15.15180588	2.592857361	18.37921143	1.0
123	283.2879944	0	0	-9.074414253	1.694548011	15.42440891	1.0
124	283.2879944	0	0	-2.313840389	-1.004101872	12.82288265	1.0
125	283.2879944	0	0	3.868626595	-3.219613552	11.4430418	1.0
[LeftHandThumb1]
122	24.6609993	-15.75	26.8239994	7.904580593	-8.752024651	24.87282372	1.0
123	24.6609993	-15.75	26.8239994	7.204285622	-9.828048706	24.99384689	1.0
124	24.6609993	-15.75	26.8239994	6.584951878	-10.79777431	25.14022255	1.0
125	24.6609993	-15.75	26.8239994	6.083478928	-11.61456776	25.31851387	1.0
[LeftHandThumb2]
122	32.29800034	-18.64699936	18.64699936	8.700140953	9.361748695	-13.02163696	1.0
123	32.29800034	-18.64699936	18.64699936	8.894845009	8.249419212	-14.57096863	1.0
124	32.29800034	-18.64699936	18.64699936	9.080805779	7.261444569	-15.98461437	1.0
125	32.29800034	-18.64699936	18.64699936	9.27491188	6.410274506	-17.16256142	1.0
[LeftHandThumb3]
122	26.52600098	-15.31499958	15.31499958	3.601811159e-06	-8.438974328e-05	-6.943767221e-05	1.0
123	26.52600098	-15.31499958	15.31499958	3.601811159e-06	-8.438974328e-05	-6.943767221e-05	1.0
124	26.52600098	-15.31499958	15.31499958	3.601811159e-06	-8.438974328e-05	-6.943767221e-05	1.0
125	26.52600098	-15.31499958	15.31499958	3.601811159e-06	-8.438974328e-05	-6.943767221e-05	1.0
[LeftHandThumb4]
122	19.54599953	-11.28499985	11.28499985	0	0	0	1.0
123	19.54599953	-11.28499985	11.28499985	0	0	0	1.0
124	19.54599953	-11.28499985	11.28499985	0	0	0	1.0
125	19.54599953	-11.28499985	11.28499985	0	0	0	1.0
[LeftHandIndex1]
122	91.09299469	-5.170999527	22.60099792	-1.30239284	-3.553124666	-30.02367783	1.0
123	91.09299469	-5.170999527	22.60099792	-1.261389017	-3.277457476	-28.77854919	1.0
124	91.09299469	-5.170999527	22.60099792	-1.225815535	-3.040844917	-27.73900604	1.0
125	91.09299469	-5.170999527	22.60099792	-1.193877101	-2.848232746	-26.8730011	1.0
[LeftHandIndex2]
122	36.76399994	0	0	-1.118081331	-2.407130003	-40.11865234	1.0
123	36.76399994	0	0	-1.092687845	-2.172404051	-38.46497345	1.0
124	36.76399994	0	0	-1.066791296	-1.980344653	-37.10778427	1.0
125	36.76399994	0	0	-1.041855693	-1.822187543	-35.98662567	1.0
[LeftHandIndex3]
122	28.83100128	0	0	-1.432096042e-06	3.907105395e-07	1.552835329e-06	1.0
123	28.83100128	0	0	-1.432096042e-06	3.907105395e-07	1.552835329e-06	1.0
124	28.83100128	0	0	-1.432096042e-06	3.907105395e-07	1.552835329e-06	1.0
125	28.83100128	0	0	-1.432096042e-06	3.907105395e-07	1.552835329e-06	1.0
[LeftHandIndex4]
122	23.92700005	0	0	0	0	0	1.0
123	23.92700005	0	0	0	0	0	1.0
124	23.92700005	0	0	0	0	0	1.0
125	23.92700005	0	0	0	0	0	1.0
[LeftHandMiddle1]
122	95.33399963	0	0	-1.687226892	-2.379868746	-37.26288986	1.0
123	95.33399963	0	0	-1.642457008	-2.197579384	-35.85087204	1.0
124	95.33399963	0	0	-1.601354718	-2.044915676	-34.66205215	1.0
125	95.33399963	0	0	-1.564736843	-1.918743491	-33.67409897	1.0
[LeftHandMiddle2]
122	36.98199844	0	0	-0.6966011524	-3.482306719	-36.82781982	1.0
123	36.98199844	0	0	-0.6968650818	-3.277682543	-35.15130615	1.0
124	36.98199844	0	0	-0.6925950646	-3.109476089	-33.77297211	1.0
125	36.98199844	0	0	-0.6860168576	-2.972559452	-32.65021896	1.0
[LeftHandMiddle3]
122	29.50900078	0	0	0	-3.180554719e-15	-7.951386796e-16	1.0
123	29.50900078	0	0	0	-3.180554719e-15	-7.951386796e-16	1.0
124	29.50900078	0	0	0	-3.180554719e-15	-7.951386796e-16	1.0
125	29.50900078	0	0	0	-3.180554719e-15	-7.951386796e-16	1.0
[LeftHandMiddle4]
122	28.3390007	0	0	0	0	0	1.0
123	28.3390007	0	0	0	0	0	1.0
124	28.3390007	0	0	0	0	0	1.0
125	28.3390007	0	0	0	0	0	1.0
[LeftHandRing1]
122	91.04499817	-0.4390000105	-18.65100098	-3.49010396	3.369203806	-47.01209641	1.0
123	91.04499817	-0.4390000105	-18.65100098	-3.473969698	3.550665855	-45.57806396	1.0
124	91.04499817	-0.4390000105	-18.65100098	-3.456238985	3.702720881	-44.36332321	1.0
125	91.04499817	-0.4390000105	-18.65100098	-3.440602779	3.834974766	-43.35124588	1.0
[LeftHandRing2]
122	31.54000092	0	0	2.663729906	-2.779503584	-44.50376129	1.0
123	31.54000092	0	0	2.523144245	-2.752999067	-42.84439087	1.0
124	31.54000092	0	0	2.407326221	-2.728002548	-41.47017288	1.0
125	31.54000092	0	0	2.313458204	-2.705518246	-40.3507309	1.0
[LeftHandRing3]
122	29.37700081	0	0	1.590277359e-15	3.180554719e-15	-7.951386796e-16	1.0
123	29.37700081	0	0	1.590277359e-15	3.180554719e-15	-7.951386796e-16	1.0
124	29.37700081	0	0	1.590277359e-15	3.180554719e-15	-7.951386796e-16	1.0
125	29.37700081	0	0	1.590277359e-15	3.180554719e-15	-7.951386796e-16	1.0
[LeftHandRing4]
122	26.47500038	0	0	0	0	0	1.0
123	26.47500038	0	0	0	0	0	1.0
124	26.47500038	0	0	0	0	0	1.0
125	26.47500038	0	0	0	0	0	1.0
[LeftHandPinky1]
122	80.77799988	-4.887000084	-38.06099701	-4.206341267	8.898014069	-44.24379349	1.0
123	80.77799988	-4.887000084	-38.06099701	-4.198248863	9.188591957	-42.75133514	1.0
124	80.77799988	-4.887000084	-38.06099701	-4.187203407	9.436911583	-41.4778595	1.0
125	80.77799988	-4.887000084	-38.06099701	-4.177496433	9.659491539	-40.40911102	1.0
[LeftHandPinky2]
122	36	0	0	6.810135365	-3.010317802	-61.98659515	1.0
123	36	0	0	6.644958496	-3.150913715	-60.61821365	1.0
124	36	0	0	6.503651619	-3.265524149	-59.47436523	1.0
125	36	0	0	6.384453297	-3.358082056	-58.52986908	1.0
[LeftHandPinky3]
122	21.14200211	0	0	3.226109357e-06	2.925280342e-06	-5.739977951e-06	1.0
123	21.14200211	0	0	3.226109357e-06	2.925280342e-06	-5.739977951e-06	1.0
124	21.14200211	0	0	3.226109357e-06	2.925280342e-06	-5.739977951e-06	1.0
125	21.14200211	0	0	3.226109357e-06	2.925280342e-06	-5.739977951e-06	1.0
[LeftHandPinky4]
122	19.75699997	0	0	0	0	0	1.0
123	19.75699997	0	0	0	0	0	1.0
124	19.75699997	0	0	0	0	0	1.0
125	19.75699997	0	0	0	0	0	1.0
[RightShoulder]
122	-45.70000076	109.4620056	-26.28000069	6.833882809	15.77681255	-17.96371651	1.0
123	-45.70000076	109.4620056	-26.28000069	9.340759277	17.71542931	-18.22067261	1.0
124	-45.70000076	109.4620056	-26.28000069	6.226583958	20.3628006	-13.36436462	1.0
125	-45.70000076	109.4620056	-26.28000069	1.321627378	23.03163338	-4.125417709	1.0
[RightArm]
122	-105.9280014	-5.248000145	-22.32099915	-445.7752075	17.94295502	-381.1045532	1.0
123	-105.9280014	-5.248000145	-22.32099915	-457.9971313	33.16308594	-410.0627136	1.0
124	-105.9280014	-5.248000145	-22.32099915	-441.5522461	58.55779648	-422.206604	1.0
125	-105.9280014	-5.248000145	-22.32099915	-348.664032	72.94789124	-355.9725952	1.0
[RightForeArm]
122	-278.414978	0	0	0.6071838737	37.43809891	1.570773721	1.0
123	-278.414978	0	0	-0.876552999	31.03608704	0.8159325123	1.0
124	-278.414978	0	0	-2.015889883	38.31959915	0.3551784754	1.0
125	-278.414978	0	0	-2.299728155	55.94742584	0.3173707128	1.0
[RightHand]
122	-283.2879944	0	0.0009999999311	8.236534119	17.32798576	9.664381981	1.0
123	-283.2879944	0	0.0009999999311	25.98748779	19.57518387	23.4513607	1.0
124	-283.2879944	0	0.0009999999311	23.16261482	18.9743576	25.96195221	1.0
125	-283.2879944	0	0.0009999999311	10.04140091	17.70728302	18.38921547	1.0
[RightHandPinky1]
122	-80.76699829	-4.885000229	-38.06000137	7.713069916	20.14979935	135.0395508	1.0
123	-80.76699829	-4.885000229	-38.06000137	6.892751217	19.48097801	131.4609528	1.0
124	-80.76699829	-4.885000229	-38.06000137	5.420871258	18.42486954	125.2618713	1.0
125	-80.76699829	-4.885000229	-38.06000137	3.561583519	17.09732628	117.5221863	1.0
[RightHandPinky2]
122	-36	0	0.0009999999311	16.48156166	-2.825246572	123.815834	1.0
123	-36	0	0.0009999999311	16.40347099	-1.544553518	117.0056381	1.0
124	-36	0	0.0009999999311	15.99936676	0.2405440956	107.1386414	1.0
125	-36	0	0.0009999999311	15.1566267	2.223211765	95.40622711	1.0
[RightHandPinky3]
122	-21.14200211	0	0	-1.590277359e-15	0	-7.951386796e-16	1.0
123	-21.14200211	0	0	-1.590277359e-15	0	-7.951386796e-16	1.0
124	-21.14200211	0	0	-1.590277359e-15	0	-7.951386796e-16	1.0
125	-21.14200211	0	0	-1.590277359e-15	0	-7.951386796e-16	1.0
[RightHandPinky4]
122	-19.75699997	0	0	0	0	0	1.0
123	-19.75699997	0	0	0	0	0	1.0
124	-19.75699997	0	0	0	0	0	1.0
125	-19.75699997	0	0	0	0	0	1.0
[RightHandRing1]
122	-91.03599548	-0.4390000105	-18.65100098	2.92858243	13.69758224	132.6304016	1.0
123	-91.03599548	-0.4390000105	-18.65100098	2.239274979	13.25060844	129.2908478	1.0
124	-91.03599548	-0.4390000105	-18.65100098	1.021434903	12.52401924	122.981987	1.0
125	-91.03599548	-0.4390000105	-18.65100098	-0.5171515942	11.55540466	114.7820435	1.0
[RightHandRing2]
122	-31.54000092	0	0	11.12925816	1.528708696	118.5307159	1.0
123	-31.54000092	0	0	10.74042702	2.045336246	112.5584106	1.0
124	-31.54000092	0	0	10.00722027	2.770927429	102.9820938	1.0
125	-31.54000092	0	0	8.954607964	3.509539127	90.98953247	1.0
[RightHandRing3]
122	-29.37700081	0	0	5.740008078e-07	-7.531911024e-07	-2.69121324e-06	1.0
123	-29.37700081	0	0	5.740008078e-07	-7.531911024e-07	-2.69121324e-06	1.0
124	-29.37700081	0	0	5.740008078e-07	-7.531911024e-07	-2.69121324e-06	1.0
125	-29.37700081	0	0	5.740008078e-07	-7.531911024e-07	-2.69121324e-06	1.0
[RightHandRing4]
122	-26.47500038	0	0	0	0	0	1.0
123	-26.47500038	0	0	0	0	0	1.0
124	-26.47500038	0	0	0	0	0	1.0
125	-26.47500038	0	0	0	0	0	1.0
[RightHandMiddle1]
122	-95.32500458	0	0	2.818971872	9.229113579	125.0841293	1.0
123	-95.32500458	0	0	2.486104727	9.127663612	122.4426346	1.0
124	-95.32500458	0	0	1.812413812	8.862618446	116.9493256	1.0
125	-95.32500458	0	0	0.9413092136	8.408862114	109.5273972	1.0
[RightHandMiddle2]
122	-36.98199844	0	0	3.78096509	9.075528145	133.6959076	1.0
123	-36.98199844	0	0	3.04142952	9.051373482	126.7286987	1.0
124	-36.98199844	0	0	1.908980846	8.822016716	115.7942886	1.0
125	-36.98199844	0	0	0.5566621423	8.242027283	101.8493118	1.0
[RightHandMiddle3]
122	-29.50900078	0	0	1.856611448e-06	-0.002022909233	1.577868488e-06	1.0
123	-29.50900078	0	0	1.856611448e-06	-0.002022909233	1.577868488e-06	1.0
124	-29.50900078	0	0	1.856611448e-06	-0.002022909233	1.577868488e-06	1.0
125	-29.50900078	0	0	1.856611448e-06	-0.002022909233	1.577868488e-06	1.0
[RightHandMiddle4]
122	-28.3390007	0	0.0009999999311	0	0	0	1.0
123	-28.3390007	0	0.0009999999311	0	0	0	1.0
124	-28.3390007	0	0.0009999999311	0	0	0	1.0
125	-28.3390007	0	0.0009999999311	0	0	0	1.0
[RightHandIndex1]
122	-91.08300018	-5.167999744	22.60099792	4.375890732	1.286116242	130.4079742	1.0
123	-91.08300018	-5.167999744	22.60099792	4.03278923	1.296851635	128.1433563	1.0
124	-91.08300018	-5.167999744	22.60099792	3.420852661	1.251058459	122.9123383	1.0
125	-91.08300018	-5.167999744	22.60099792	2.634597301	1.04386127	115.4522247	1.0
[RightHandIndex2]
122	-36.76399994	0	0	3.292388678	9.710536003	139.0515137	1.0
123	-36.76399994	0	0	2.311939001	9.59039402	131.3193512	1.0
124	-36.76399994	0	0	0.859832406	9.133318901	119.3292389	1.0
125	-36.76399994	0	0	-0.8093013763	8.149137497	104.0319519	1.0
[RightHandIndex3]
122	-28.83100128	0	0	-3.180554719e-15	0	0	1.0
123	-28.83100128	0	0	-3.180554719e-15	0	0	1.0
124	-28.83100128	0	0	-3.180554719e-15	0	0	1.0
125	-28.83100128	0	0	-3.180554719e-15	0	0	1.0
[RightHandIndex4]
122	-23.92700005	0	0	0	0	0	1.0
123	-23.92700005	0	0	0	0	0	1.0
124	-23.92700005	0	0	0	0	0	1.0
125	-23.92700005	0	0	0	0	0	1.0
[RightHandThumb1]
122	-24.64799881	-15.72700024	26.82600021	12.81865883	18.10844231	5.315369129	1.0
123	-24.64799881	-15.72700024	26.82600021	10.70483494	15.75349426	6.652671814	1.0
124	-24.64799881	-15.72700024	26.82600021	8.510837555	13.59423447	7.580853462	1.0
125	-24.64799881	-15.72700024	26.82600021	6.311752319	11.66366482	8.219285965	1.0
[RightHandThumb2]
122	-32.29800034	-18.64699936	18.64699936	-7.888782501	-47.49337769	59.56215668	1.0
123	-32.29800034	-18.64699936	18.64699936	-4.816350937	-46.06642914	53.17810059	1.0
124	-32.29800034	-18.64699936	18.64699936	-2.075006962	-43.36243057	46.87010574	1.0
125	-32.29800034	-18.64699936	18.64699936	-0.102318421	-39.66716766	41.03022385	1.0
[RightHandThumb3]
122	-26.52600098	-15.31399918	15.31399918	-3.81245151e-08	-0.00121095567	-0.001221005921	1.0
123	-26.52600098	-15.31399918	15.31399918	-3.81245151e-08	-0.00121095567	-0.001221005921	1.0
124	-26.52600098	-15.31399918	15.31399918	-3.81245151e-08	-0.00121095567	-0.001221005921	1.0
125	-26.52600098	-15.31399918	15.31399918	-3.81245151e-08	-0.00121095567	-0.001221005921	1.0
[RightHandThumb4]
122	-19.54599953	-11.28499985	11.28499985	0	0	0	1.0
123	-19.54599953	-11.28499985	11.28499985	0	0	0	1.0
124	-19.54599953	-11.28499985	11.28499985	0	0	0	1.0
125	-19.54599953	-11.28499985	11.28499985	0	0	0	1.0
[LeftUpLeg]
122	82.07800293	-67.51699829	-15.99599934	-18.16572189	8.083504677	15.15966129	1.0
123	82.07800293	-67.51699829	-15.99599934	-24.87281609	2.690062761	10.48100758	1.0
124	82.07800293	-67.51699829	-15.99599934	-30.33646393	-2.678440332	7.142549038	1.0
125	82.07800293	-67.51699829	-15.99599934	-35.53355408	-7.637382507	5.179216385	1.0
[LeftLeg]
122	0	-443.7049866	2.845999956	43.40781021	-16.67141914	-1.92448318	1.0
123	0	-443.7049866	2.845999956	44.39553833	-16.12689972	-2.123529911	1.0
124	0	-443.7049866	2.845999956	43.92195892	-15.26269817	-1.348070741	1.0
125	0	-443.7049866	2.845999956	43.99932861	-14.57858849	-0.5574529171	1.0
[LeftFoot]
122	0	-444.2789917	-29.8219986	-1.587094903	-33.58441925	-20.44356918	1.0
123	0	-444.2789917	-29.8219986	-0.6359730959	-32.8372345	-17.84227562	1.0
124	0	-444.2789917	-29.8219986	-0.06501405686	-31.86618423	-15.59703922	1.0
125	0	-444.2789917	-29.8219986	-0.04698866978	-31.19203377	-13.74385357	1.0
[LeftToeBase]
122	0	-87.28699493	107.1060028	0.5123260021	-0.0004965300323	0.06697180867	1.0
123	0	-87.28699493	107.1060028	-0.8544015884	-0.0002239464957	0.03113716096	1.0
124	0	-87.28699493	107.1060028	-1.68839252	4.155971328e-05	-0.005286528263	1.0
125	0	-87.28699493	107.1060028	-1.240516782	-1.16019537e-05	-3.103368726e-06	1.0
[RightUpLeg]
122	-82.07800293	-67.51699829	-15.99599934	26.87772369	-20.73556137	-18.05580139	1.0
123	-82.07800293	-67.51699829	-15.99599934	26.49870872	-21.40460396	-14.2764883	1.0
124	-82.07800293	-67.51699829	-15.99599934	24.06960297	-22.97129631	-11.62971306	1.0
125	-82.07800293	-67.51699829	-15.99599934	20.24465561	-25.0486908	-9.690899849	1.0
[RightLeg]
122	0	-443.7049866	2.861999989	36.177742	-5.573100567	-4.503363609	1.0
123	0	-443.7049866	2.861999989	35.89548111	-7.988912582	-3.649209738	1.0
124	0	-443.7049866	2.861999989	36.27830887	-11.13695145	-2.640457392	1.0
125	0	-443.7049866	2.861999989	38.09700775	-13.22461796	-0.9036336541	1.0
[RightFoot]
122	0	-444.2770081	-29.83799934	-20.18434143	-3.661236048	22.30943298	1.0
123	0	-444.2770081	-29.83799934	-21.45683098	-3.990231991	21.78721428	1.0
124	0	-444.2770081	-29.83799934	-25.29332733	-5.87948513	21.18321037	1.0
125	0	-444.2770081	-29.83799934	-30.92580414	-9.197249413	21.03999329	1.0
[RightToeBase]
122	0	-87.28699493	107.1060028	-13.33975983	0.07606235147	0.3113526106	1.0
123	0	-87.28699493	107.1060028	-15.35299301	-0.01086334232	-0.02772836015	1.0
124	0	-87.28699493	107.1060028	-15.59490967	-0.05001493171	-0.1887867451	1.0
125	0	-87.28699493	107.1060028	-14.95219994	0.004076078068	0.01521009114	1.0
[EndOfFile]
